<svg xmlns="http://www.w3.org/2000/svg" xmlns:xlink="http://www.w3.org/1999/xlink" width="15" height="15" viewBox="0 0 15 15">
  <defs>
    <clipPath id="clip-path">
      <rect id="Rectangle_65" data-name="Rectangle 65" width="15" height="15" transform="translate(0 0.5)" fill="#fff"/>
    </clipPath>
  </defs>
  <g id="Group_77" data-name="Group 77" transform="translate(0 -0.5)">
    <g id="Group_62" data-name="Group 62" clip-path="url(#clip-path)">
      <path id="Path_5133" data-name="Path 5133" d="M4.1,0a3.127,3.127,0,0,1,.557.238,1.114,1.114,0,0,1,.5.932,9.694,9.694,0,0,0,.234,1.988c.065.265.145.526.212.79a1.211,1.211,0,0,1-.25,1.1c-.422.543-.834,1.1-1.245,1.647a.16.16,0,0,0,0,.14,9.192,9.192,0,0,0,3.63,3.82c.144.082.285.17.434.244a.175.175,0,0,0,.151-.008c.552-.411,1.1-.822,1.647-1.245A1.22,1.22,0,0,1,11.038,9.4c.394.091.78.224,1.178.287.51.08,1.026.121,1.542.152a1.22,1.22,0,0,1,1.194.9,1.423,1.423,0,0,1,.047.376q.006,1.311,0,2.622A1.21,1.21,0,0,1,13.723,15,13.6,13.6,0,0,1,6.1,12.647,13.683,13.683,0,0,1,1.147,6.7,13.146,13.146,0,0,1,.115,2.935C.07,2.553.038,2.17,0,1.787V1.055A3.979,3.979,0,0,1,.256.48a1.2,1.2,0,0,1,.8-.48Z" fill="#fff"/>
    </g>
  </g>
</svg>
