<svg xmlns="http://www.w3.org/2000/svg" width="15" height="8.766" viewBox="0 0 15 8.766">
  <path id="Path_5166" data-name="Path 5166" d="M212.026,7.649a1.757,1.757,0,0,1-.578.956q-2.985,2.973-5.96,5.956a1.281,1.281,0,0,1-1.176.418,1.253,1.253,0,0,1-.792-1.991,2.219,2.219,0,0,1,.215-.24q2.553-2.555,5.109-5.108c.041-.041.087-.078.142-.127-.051-.053-.089-.1-.129-.135Q206.283,4.8,203.707,2.23a1.293,1.293,0,0,1-.428-1.131A1.251,1.251,0,0,1,204.294.025.807.807,0,0,0,204.376,0h.293a1.788,1.788,0,0,1,.957.577q2.905,2.917,5.823,5.822a1.771,1.771,0,0,1,.578.956Z" transform="translate(15 -203.26) rotate(90)" fill="#757575"/>
</svg>
