<svg xmlns="http://www.w3.org/2000/svg" width="26.999" height="27" viewBox="0 0 26.999 27">
  <g id="Group_142" data-name="Group 142" transform="translate(-4272.87 75)">
    <path id="Path_5162" data-name="Path 5162" d="M188.6,107.268a.871.871,0,0,0-.871-.871H177.273a.871.871,0,0,0-.871.871v10.451a.871.871,0,0,0,.871.871h10.451a.871.871,0,0,0,.871-.871Zm-1.742,9.58h-8.71v-8.71h8.71Z" transform="translate(4096.468 -181.397)" fill="#212121"/>
    <path id="Path_5163" data-name="Path 5163" d="M379,107.268a.871.871,0,0,0-.871-.871H367.673a.871.871,0,0,0-.871.871v10.451a.871.871,0,0,0,.871.871h10.451a.871.871,0,0,0,.871-.871Zm-1.742,9.58h-8.71v-8.71h8.71Z" transform="translate(3920.874 -181.397)" fill="#212121"/>
    <path id="Path_5164" data-name="Path 5164" d="M367.675,309h10.451a.871.871,0,0,0,.871-.871V297.673a.871.871,0,0,0-.871-.871H367.676a.871.871,0,0,0-.871.871v10.451a.871.871,0,0,0,.871.871Zm.871-10.451h8.709v8.71h-8.709Z" transform="translate(3920.871 -356.995)" fill="#212121"/>
    <path id="Path_5165" data-name="Path 5165" d="M187.723,296.8H177.272a.871.871,0,0,0-.871.871v10.451a.871.871,0,0,0,.871.871h10.451a.871.871,0,0,0,.871-.871V297.671A.871.871,0,0,0,187.723,296.8Zm-.871,10.451h-8.71v-8.71h8.71Z" transform="translate(4096.469 -356.994)" fill="#212121"/>
  </g>
</svg>
