<svg xmlns="http://www.w3.org/2000/svg" width="15" height="15" viewBox="0 0 15 15">
  <g id="Group_3" data-name="Group 3" transform="translate(-1095.327 147.813)">
    <path id="Path_8" data-name="Path 8" d="M29.709,61.333a.724.724,0,1,0,.724.724.724.724,0,0,0-.724-.724" transform="translate(1077.183 -206.404)"/>
    <path id="Path_9" data-name="Path 9" d="M16.056,64.011a3.041,3.041,0,1,0,3.04,3.041,3.044,3.044,0,0,0-3.04-3.041m0,4.988A1.948,1.948,0,1,1,18,67.052,1.95,1.95,0,0,1,16.056,69" transform="translate(1086.844 -207.364)"/>
    <path id="Path_10" data-name="Path 10" d="M14.323,69.971H8.335a4.51,4.51,0,0,1-4.506-4.506V59.477a4.51,4.51,0,0,1,4.506-4.506h5.989a4.511,4.511,0,0,1,4.506,4.506v5.989a4.511,4.511,0,0,1-4.506,4.506M8.335,56.382A3.1,3.1,0,0,0,5.24,59.477v5.989A3.1,3.1,0,0,0,8.335,68.56h5.989a3.1,3.1,0,0,0,3.095-3.095V59.477a3.1,3.1,0,0,0-3.095-3.094Z" transform="translate(1091.498 -202.784)"/>
  </g>
</svg>
