<svg id="Group_894" data-name="Group 894" xmlns="http://www.w3.org/2000/svg" xmlns:xlink="http://www.w3.org/1999/xlink" width="295" height="51.426" viewBox="0 0 295 51.426">
  <defs>
    <clipPath id="clip-path">
      <rect id="Rectangle_20" data-name="Rectangle 20" width="295" height="51.426" fill="none"/>
    </clipPath>
  </defs>
  <g id="Group_1" data-name="Group 1" clip-path="url(#clip-path)">
    <path id="Path_1" data-name="Path 1" d="M1291.327,35.558a3.357,3.357,0,0,0,.2,2.257,1.891,1.891,0,0,0,1.309.854,5.532,5.532,0,0,0,1.958-.044,12.8,12.8,0,0,0,2.164-.589,19.521,19.521,0,0,0,5.473-2.583q2.2-1.564,4.648-3.594a.041.041,0,0,1,.013-.012c.025-.216.05-.433.078-.65a27.665,27.665,0,0,1,1.345-5.729,8.865,8.865,0,0,1,.49-1.168c.708-1.611,1.684-2.158,2.939-1.642a2.032,2.032,0,0,1,1.346.97,2.327,2.327,0,0,1,.121,2.064q-.57,1.791-1.016,3.662a26.63,26.63,0,0,0-.612,3.506,21.052,21.052,0,0,0-.12,2.842,3.092,3.092,0,0,0,.448,1.751q.491.389,1.346-.781c.568-.78,1.2-1.716,1.877-2.809s1.388-2.183,2.121-3.276a7.262,7.262,0,0,1,2.163-2.264,3.819,3.819,0,0,1,3.345-.708,2.9,2.9,0,0,1,2.122,2.486,18.932,18.932,0,0,1,.164,2.725c0,1.091.018,2.168.043,3.232a18.965,18.965,0,0,0,.249,2.764c.133.779.395,1.194.77,1.243a2.049,2.049,0,0,0,1.146-.7,27.874,27.874,0,0,0,2.084-2.264q1.1-1.326,2.079-2.614t1.714-2.263c.153-.2.291-.382.414-.536q.318-3.421.682-6.9.161-1.092.326-2.3t.327-2.532a7.639,7.639,0,0,1-1.1.2,4.463,4.463,0,0,0-.939.2c-.594.21-1.225.418-1.874.628s-1.309.445-1.963.707q-3.019,1.173-3.51-.227-.737-1.243,2.533-2.5a26.94,26.94,0,0,1,2.613-1.1q1.3-.472,2.691-.863a4.958,4.958,0,0,0,2.122-1.1,4.211,4.211,0,0,0,1.06-2.182q.246-.779.654-1.949a10.4,10.4,0,0,1,1.024-2.144,4.58,4.58,0,0,1,1.51-1.523,2.322,2.322,0,0,1,2.042-.16,1.514,1.514,0,0,1,1.061,1.322,11.185,11.185,0,0,1-.084,2.257c-.056.416-.11.831-.166,1.248s-.131.909-.24,1.48q2.117-.393,4.364-.906t4.291-.907q.572-.157,1.182-.275c.405-.079.8-.144,1.181-.2q1.555-.158,1.8,1.165c.219.778-.14,1.4-1.061,1.872-.6.157-1.176.314-1.714.47s-1.091.29-1.637.393c-1.084.263-2.327.537-3.715.826s-2.649.539-3.794.751a2.177,2.177,0,0,0-1.958,1.952,110.535,110.535,0,0,0-1.593,12.346,81.342,81.342,0,0,0,.045,12.344q.163.936.364,1.83a4.584,4.584,0,0,0,.861,1.75,2.524,2.524,0,0,1,.691,2.453q-.363,1.207-2.163,1.289a4.238,4.238,0,0,1-4.571-2.715,17.449,17.449,0,0,1-1.389-5.447,43.994,43.994,0,0,1-.334-5.776q-.37.454-.764.911a27.624,27.624,0,0,1-2.9,2.89,9.3,9.3,0,0,1-2.576,1.68,4.2,4.2,0,0,1-2.975.007,3.678,3.678,0,0,1-2.086-2.487,11.619,11.619,0,0,1-.527-2.686q-.127-1.44-.291-2.765a12.242,12.242,0,0,1-.079-1.44c0-.493-.031-1.077-.085-1.751a13.07,13.07,0,0,0-2.285,2.459q-.9,1.286-1.716,2.613c-.538.883-1.084,1.768-1.628,2.652a14.592,14.592,0,0,1-1.958,2.5,4.743,4.743,0,0,1-3.1,1.06,3.159,3.159,0,0,1-2.7-1.514,4.177,4.177,0,0,1-.734-2.178q-.083-1.245-.163-2.414c0-.136,0-.272,0-.408l-.416.331a36.187,36.187,0,0,1-4.328,2.892,27.454,27.454,0,0,1-4.733,2.153,12.219,12.219,0,0,1-4.371.75,7.417,7.417,0,0,1-5.595-2.79,6.406,6.406,0,0,1-.691-5.917,11.985,11.985,0,0,1,2.7-4.679,15.7,15.7,0,0,1,2.284-2.07,16.294,16.294,0,0,1,3.061-1.875,7.949,7.949,0,0,1,3.182-.786,3.543,3.543,0,0,1,2.734,1.123,2.909,2.909,0,0,1,.74,3.268,9.359,9.359,0,0,1-2.327,3.627,12.252,12.252,0,0,1-3.836,2.618,5.154,5.154,0,0,1-3.88.322m82.64-.042c-.546.676-1.06,1.288-1.551,1.834s-.982,1.079-1.466,1.6q-.737.624-1.515,1.327a6.791,6.791,0,0,1-1.588,1.094,2.863,2.863,0,0,1-4.492-1.7,4.072,4.072,0,0,1-.25-2.1,20.464,20.464,0,0,1,2.29-6.393,14.312,14.312,0,0,1,4.733-4.918,8.711,8.711,0,0,1,4.079-1.489,7.062,7.062,0,0,1,4.164,1.081,4.529,4.529,0,0,1,1.637,1.358,3.033,3.033,0,0,1,.165,2.064c-.109.832-.262,1.65-.449,2.455a22.191,22.191,0,0,0-.454,2.531c-.11.78-.214,1.572-.321,2.377a4.833,4.833,0,0,0,.037,1.908.825.825,0,0,0,.817.7q.61,0,2-1.329c.762-.833,1.345-1.483,1.758-1.951s.787-.9,1.139-1.289.733-.819,1.145-1.288c.378-.436.914-1.009,1.6-1.715q.059-.582.091-1.016.245-2.569.734-6.114t1.224-7.091q.734-3.544,1.55-6.739a28.2,28.2,0,0,1,1.716-5.067,2.376,2.376,0,0,1,1.181-1.365,2.819,2.819,0,0,1,1.673-.2,2.053,2.053,0,0,1,1.551,2.567q-1.308,6.7-2.4,13.13t-1.671,12.814c-.054.779-.085,1.532-.085,2.26a5.565,5.565,0,0,0,.207,1.713c.134.415.352.6.655.544s.721-.47,1.26-1.25a24.829,24.829,0,0,1,1.551-2.067,15.155,15.155,0,0,0,1.06-1.366,7.076,7.076,0,0,1,.534-.74,7.335,7.335,0,0,1,.691-.742,1.142,1.142,0,0,1,1.636-.276q.821.582.164,2.062a10.654,10.654,0,0,1-1.187,1.95q-.937,1.328-2.037,2.848c-.739,1.014-1.429,1.964-2.085,2.847s-1.139,1.509-1.466,1.874a6.506,6.506,0,0,1-1.595,1.249,2.864,2.864,0,0,1-2,.239,3.1,3.1,0,0,1-2.491-2.019,11.9,11.9,0,0,1-.814-3.814c-.021-.341-.034-.679-.039-1.016q-.227.246-.469.512-.608.664-1.672,1.833a16.2,16.2,0,0,1-3.188,2.891,6.577,6.577,0,0,1-3.63,1.254,3.309,3.309,0,0,1-2.449-1.162,6.587,6.587,0,0,1-1.346-2.878,14.425,14.425,0,0,1-.328-3.816m-119.691,7.95q.916,2.976,2.934,3.382a7.635,7.635,0,0,0,4.63-.779,27.085,27.085,0,0,0,5.554-3.519q2.94-2.336,5.63-4.907t4.9-4.872q2.207-2.3,3.417-3.384a2.5,2.5,0,0,1,1.628-.778,1.945,1.945,0,0,1,1.374.4,1.8,1.8,0,0,1,.639,1.184,2.085,2.085,0,0,1-.533,1.556q-1.419,1.489-3.443,3.519t-4.474,4.229q-2.453,2.2-5.178,4.3a64.868,64.868,0,0,1-5.449,3.79,31.989,31.989,0,0,1-5.342,2.707,13.515,13.515,0,0,1-4.878,1.016,6.527,6.527,0,0,1-4.135-1.453,8.114,8.114,0,0,1-2.434-4.227,16.683,16.683,0,0,1-.8-5.344,38.4,38.4,0,0,1,.47-5.412,60.794,60.794,0,0,1,10.435-25.846,36.021,36.021,0,0,1,3.471-3.993,23.668,23.668,0,0,1,3.962-3.181A14.638,14.638,0,0,1,1269.8.4a8.747,8.747,0,0,1,3.354-.374,7.327,7.327,0,0,1,3.184,1.014,8.672,8.672,0,0,1,2.552,2.3,10.644,10.644,0,0,1,1.633,3.247,10.182,10.182,0,0,1,.419,3.788,18.8,18.8,0,0,1-1.11,5.041q-.894,2.4-1.892,4.77a1.4,1.4,0,0,1-1.917.881,1.444,1.444,0,0,1-.917-.879,2.814,2.814,0,0,1-.072-1.421,8.312,8.312,0,0,1,.391-1.387,7.765,7.765,0,0,0,.391-1.387c.144-.9.3-1.782.467-2.638a14.117,14.117,0,0,0,.25-2.64,5.219,5.219,0,0,0-1.62-4.262,3.576,3.576,0,0,0-4.025-.269,19.4,19.4,0,0,0-5.1,3.655,36.588,36.588,0,0,0-5.709,8.322,62.031,62.031,0,0,0-3.868,9.743q-.571,1.827-.993,3.654t-.788,3.722q-.359,2.163-.5,4.228a12.336,12.336,0,0,0,.346,3.957m43.5-15.165a7.868,7.868,0,0,0-4.655,4.138,8.678,8.678,0,0,0,2.861-1.037,7.177,7.177,0,0,0,1.794-3.1m69.252,9.568A15.063,15.063,0,0,0,1369.148,36q1.309-1.326,2.57-2.77c.849-.963,1.606-1.9,2.29-2.81a8.968,8.968,0,0,0,1.26-2.068,5.066,5.066,0,0,0-2.775.513,7.6,7.6,0,0,0-2.484,1.953,12.64,12.64,0,0,0-1.922,3.12,13.45,13.45,0,0,0-1.06,3.935m-15.517-8.685c.545-.52.975-.937,1.3-1.249s.656-.6.983-.859q.981-.782,1.915-1.563a11.328,11.328,0,0,1,2.008-1.329,3.878,3.878,0,0,1,4.734.535c1.029,1.139,1.224,2.644.569,4.515a1.728,1.728,0,0,1-1.957,1.251q-1.145-.153-.982-1.4a3.456,3.456,0,0,0,.085-1.245q-.246-1.56-1.964-.62c-.327.208-.679.457-1.06.743a6.028,6.028,0,0,0-.977.9,27.353,27.353,0,0,0-4.326,5.5,12.016,12.016,0,0,0-1.8,6.274,3.449,3.449,0,0,1-.69,2.1,2.976,2.976,0,0,1-1.837,1.173,2.223,2.223,0,0,1-1.838-.308,2.36,2.36,0,0,1-.938-1.711,21.32,21.32,0,0,1-.128-3.311q.046-2.3.327-4.907a39.481,39.481,0,0,1,.938-5.22,18.727,18.727,0,0,1,1.635-4.4,2.965,2.965,0,0,1,1.3-1.248,3.073,3.073,0,0,1,1.638-.316q1.873.23,1.631,2.255c-.055.674-.133,1.363-.242,2.063s-.218,1.493-.328,2.377" transform="translate(-1129.368 0)" fill="#f91313" fill-rule="evenodd"/>
    <path id="Path_2" data-name="Path 2" d="M2910.438,199.524c-6.122-.676-11.593,5.469-10.027,12.375.44,1.941,7.209,12.651,8.333,13.87a1.707,1.707,0,0,0,1.038.582c1.463.174,6.185-9.017,7.849-12.044,3.071-5.583,0-13.908-7.193-14.782m-.994,3.609a5.642,5.642,0,0,1,5.564,5.742,5.7,5.7,0,0,1-5.4,5.941,5.641,5.641,0,0,1-5.564-5.742,5.7,5.7,0,0,1,5.4-5.941" transform="translate(-2623.816 -180.467)" fill="#f91313" fill-rule="evenodd"/>
    <path id="Path_3" data-name="Path 3" d="M2265.913,504.85a1.555,1.555,0,0,1,1.55-1.554l55.318-.138a1.545,1.545,0,0,1,1.551,1.546h0a1.555,1.555,0,0,1-1.55,1.554l-55.319.139a1.546,1.546,0,0,1-1.55-1.546Z" transform="translate(-2050.018 -455.217)" fill="#3d3d48" fill-rule="evenodd"/>
    <path id="Path_4" data-name="Path 4" d="M2928.725,504.305a1.555,1.555,0,0,1,1.55-1.554l10.371-.026a1.546,1.546,0,0,1,1.55,1.546h0a1.555,1.555,0,0,1-1.55,1.554l-10.37.026a1.546,1.546,0,0,1-1.551-1.546Z" transform="translate(-2649.678 -454.826)" fill="#3d3d48" fill-rule="evenodd"/>
    <path id="Path_5" data-name="Path 5" d="M1533.238,506.656a1.554,1.554,0,0,1,1.55-1.554l52.532-.131a1.545,1.545,0,0,1,1.55,1.546h0a1.555,1.555,0,0,1-1.55,1.554l-52.532.131a1.545,1.545,0,0,1-1.55-1.546Z" transform="translate(-1387.152 -456.857)" fill="#3d3d48" fill-rule="evenodd"/>
    <path id="Path_6" data-name="Path 6" d="M636.392,23.156c-5.919,11.563-11.976,23.3-17.878,34.806-1.491,2.9-3.126,6.069-4.46,8.669-.441.859-.933,2.066-1.4,2.762-.793,1.178-11.159,1.459-14.207.064-.136-.062-21.151-39.321-24.729-46.015,2.5-.028,7.759-.143,10.53-.12a3.269,3.269,0,0,1,1.864.566,6.182,6.182,0,0,1,1.056,1.165c3.96,7.092,15.667,27.986,17.765,31.844.058.107.911-.011,1.112-.017,2.062-3.642,13-24.473,16.825-31.679a5.044,5.044,0,0,1,1.726-1.763c.939-.455,11.553-.279,11.8-.282" transform="translate(-519.054 -20.922)" fill="#3d3d48" fill-rule="evenodd"/>
    <path id="Path_7" data-name="Path 7" d="M38.725,29.266c5.3.565,5.558.741,9.805,2.524C58.6,36.016,60.5,50.843,52.57,58.24c-2.424,2.261-5.246,3.318-8.289,4.369.233.031,10.559,12.226,11.692,13.683-4.022.037-9.3-.033-13.152-.052-1.9-.009-10-12.425-10.634-12.714-.387-.176-16.59.189-22.137.241.023,2.972.088,7.409-.091,10.115-.032.485-1.107,2.382-2.656,2.459-1.777.089-4.8.029-7.115.05C.177,71.254.031,43.815,0,32.935a3.172,3.172,0,0,1,1.1-2.572,3.2,3.2,0,0,1,2.183-.893c7.464-.3,30.415-.156,35.446-.2M37.6,52.975l2.97-.265c2.8-.778,4.5-2.746,4.809-6.251A6.461,6.461,0,0,0,39.382,40L10,40.141l-.018,13.04.17.015L37.6,52.975" transform="translate(0 -26.478)" fill="#3d3d48" fill-rule="evenodd"/>
  </g>
</svg>
